<?xml version="1.0" standalone="no"?>
<!DOCTYPE svg PUBLIC "-//W3C//DTD SVG 20010904//EN"
 "http://www.w3.org/TR/2001/REC-SVG-20010904/DTD/svg10.dtd">
<svg version="1.0" xmlns="http://www.w3.org/2000/svg"
 width="650.000000pt" height="650.000000pt" viewBox="0 0 650.000000 650.000000"
 preserveAspectRatio="xMidYMid meet">
<metadata>
Created by potrace 1.11, written by Peter Selinger 2001-2013
</metadata>
<g transform="translate(0.000000,650.000000) scale(0.100000,-0.100000)"
fill="#000000" stroke="none">
<path d="M3215 6233 c-48 -25 -83 -63 -100 -107 -14 -36 -15 -137 -13 -833 l3
-791 30 -43 c78 -110 239 -108 312 3 l28 42 3 785 c2 541 0 798 -8 823 -31
107 -163 170 -255 121z"/>
<path d="M1937 4982 l-527 -527 0 -1941 c0 -1916 0 -1943 20 -2005 36 -114
115 -197 226 -239 54 -20 71 -20 1634 -20 1563 0 1580 0 1634 20 111 42 190
125 226 239 20 62 20 89 20 2005 l0 1941 -523 523 -522 522 -233 0 -232 0 0
-263 0 -263 36 -35 c47 -45 97 -129 122 -204 100 -299 -80 -628 -388 -710 -64
-17 -205 -19 -270 -4 -203 46 -371 224 -416 439 -35 166 24 367 140 479 l36
35 0 268 0 268 -228 0 -227 0 -528 -528z m1540 -1593 c409 -56 787 -332 974
-709 91 -184 147 -441 136 -620 -8 -123 -31 -249 -63 -347 -175 -536 -669
-893 -1235 -893 -361 0 -687 141 -940 408 -219 230 -338 511 -355 842 -13 239
71 539 210 747 14 21 37 54 51 75 41 61 175 192 265 258 155 113 396 213 575
239 88 13 292 13 382 0z"/>
<path d="M3760 2689 c-33 -15 -126 -101 -347 -322 l-303 -301 -137 136 c-86
84 -153 142 -177 152 -116 48 -263 -12 -310 -128 -22 -52 -20 -141 3 -191 12
-26 106 -127 262 -282 240 -237 245 -241 300 -253 45 -10 68 -10 110 0 53 12
61 19 467 424 285 284 419 424 434 454 41 85 13 208 -63 279 -59 54 -160 68
-239 32z"/>
</g>
</svg>
